<svg width="60" height="60" viewBox="0 0 60 60" fill="none" xmlns="http://www.w3.org/2000/svg">
<circle cx="30" cy="30" r="30" fill="#F48A2A" fill-opacity="0.1"/>
<g clip-path="url(#clip0_562_3042)">
<path d="M45.4507 32.4091C45.1863 32.3835 44.9927 32.1485 45.0182 31.8842C45.2293 29.7 43.6685 27.9723 43.6527 27.9551C43.4733 27.7597 43.4857 27.4557 43.6806 27.276C43.8755 27.0962 44.1788 27.1078 44.359 27.3024C44.4355 27.385 46.2288 29.3548 45.9755 31.9768C45.9502 32.2391 45.7172 32.4345 45.4507 32.4091Z" fill="#8CBAE0"/>
<path d="M30.7988 20.2505L23.7495 30.0464C24.3518 32.0431 25.2329 32.3043 25.5714 33.6394C25.7784 34.4562 26.8818 38.5762 26.6519 39.4672C26.4531 40.2376 25.5272 39.9602 25.1438 40.7325C25.0371 40.9476 25.1971 41.2002 25.4372 41.2002H29.4536C29.6769 41.2002 29.858 41.0191 29.858 40.7958V36.7622C29.858 36.2608 30.328 35.8923 30.8149 36.0122C32.8886 36.5227 35.1551 36.5145 37.2484 35.9654C37.5915 35.8754 37.9349 36.1102 37.9805 36.4619L38.3148 39.041C38.4146 39.8117 37.8971 40.2116 37.663 40.4206C37.3571 40.6937 37.5503 41.2002 37.9604 41.2002H41.1978C41.5903 41.2002 41.9279 40.9223 42.0034 40.537L43.9625 30.5364C46.3995 24.224 38.8705 18.2529 30.7988 20.2505Z" fill="#79A6D1"/>
<path d="M39.0717 40.4198C39.2679 40.2447 39.8265 39.8353 39.7235 39.0402L39.3891 36.461C39.3435 36.1094 39.0001 35.8746 38.6571 35.9646C38.3895 36.0348 38.117 36.0964 37.8403 36.1497C37.997 36.33 37.9493 36.2189 38.3149 39.0403C38.4148 39.8109 37.8973 40.2109 37.6632 40.4199C37.3573 40.693 37.5505 41.1994 37.9606 41.1994H39.3691C38.959 41.1994 38.7658 40.6929 39.0717 40.4198Z" fill="#5894C6"/>
<path d="M34.6508 19.8911C33.7116 19.8415 32.7843 19.8887 31.8575 20.0362C31.8575 20.0362 31.3408 20.1156 30.7988 20.2497L23.7495 30.0456C23.7576 30.0725 23.7664 30.0993 23.7748 30.1261C24.3924 32.085 25.2349 32.3114 25.5713 33.6386C25.7784 34.4554 26.8818 38.5755 26.6518 39.4664C26.453 40.2368 25.5271 39.9595 25.1438 40.7318C25.037 40.9468 25.1971 41.1994 25.4371 41.1994H26.8456C26.6055 41.1994 26.4454 40.9468 26.5523 40.7318C26.9356 39.9594 27.8615 40.2368 28.0603 39.4664C28.2893 38.5793 27.1916 34.474 26.9798 33.6386C26.6483 32.3308 25.8397 32.116 25.2116 30.2148C25.2343 30.2456 25.2549 30.2782 25.2709 30.3138C25.5421 30.916 26.31 32.55 28.5738 31.9566C30.8254 31.3666 30.8319 28.8828 30.7226 28.112C30.6978 27.937 30.7562 27.7608 30.8803 27.635C32.9299 25.5585 33.993 22.6533 32.1369 20.3473L32.2072 20.2497C32.9864 20.057 33.8051 19.935 34.6508 19.8911Z" fill="#5894C6"/>
<path d="M35.1166 27.7301C34.8511 27.7301 34.6357 27.5148 34.6357 27.2492V26.2875C34.6357 26.022 34.8511 25.8066 35.1166 25.8066C35.3822 25.8066 35.5975 26.022 35.5975 26.2875V27.2492C35.5975 27.5148 35.3822 27.7301 35.1166 27.7301Z" fill="#EFE6D3"/>
<path d="M32.7462 27.3549C32.6964 27.3549 32.6456 27.3471 32.5956 27.3306C32.3434 27.2474 32.2063 26.9756 32.2894 26.7233L32.5901 25.8109C32.6732 25.5588 32.945 25.4216 33.1974 25.5048C33.4495 25.5879 33.5867 25.8598 33.5035 26.112L33.2029 27.0244C33.1362 27.2267 32.9482 27.3549 32.7462 27.3549Z" fill="#EFE6D3"/>
<path d="M37.3317 27.5856C37.1153 27.5856 36.9187 27.4384 36.865 27.2188L36.642 26.3071C36.579 26.0491 36.737 25.7888 36.995 25.7257C37.2531 25.6629 37.5133 25.8207 37.5763 26.0786L37.7993 26.9904C37.8623 27.2484 37.7043 27.5086 37.4463 27.5718C37.4079 27.5811 37.3695 27.5856 37.3317 27.5856Z" fill="#EFE6D3"/>
<path d="M39.4955 27.1108C39.3168 27.1108 39.1452 27.0107 39.0622 26.8391L38.6674 26.0222C38.5518 25.7831 38.652 25.4956 38.8912 25.3801C39.1303 25.2645 39.4178 25.3646 39.5334 25.6037L39.9282 26.4206C40.0437 26.6597 39.9435 26.9472 39.7044 27.0628C39.637 27.0953 39.5657 27.1108 39.4955 27.1108Z" fill="#EFE6D3"/>
<path d="M41.5552 26.2118C41.405 26.2118 41.2571 26.1417 41.1632 26.01C40.9638 25.7304 40.7138 25.3936 40.6214 25.2854C40.5685 25.2457 40.5229 25.1944 40.489 25.1327C40.3608 24.9001 40.4455 24.6077 40.6782 24.4795C41.0439 24.2782 41.3124 24.61 41.4007 24.7191C41.4598 24.7922 41.5378 24.8937 41.6325 25.0209C41.7901 25.2326 41.9401 25.443 41.9464 25.4519C42.1006 25.6681 42.0503 25.9684 41.8341 26.1225C41.7493 26.1828 41.6518 26.2118 41.5552 26.2118ZM41.1421 25.3219C41.0987 25.3459 41.0531 25.3624 41.007 25.3719C41.0517 25.3628 41.0972 25.3467 41.1421 25.3219Z" fill="#EFE6D3"/>
<path d="M30.7988 20.2499C31.9118 21.543 32.2275 23.3441 31.2715 25.3288C32.6007 25.9435 34.081 26.2871 35.6416 26.2871C38.349 26.2871 40.8151 25.2548 42.6683 23.5626C40.0258 20.4306 35.1538 19.1721 30.7988 20.2499Z" fill="#ED4A62"/>
<path d="M32.3288 20.6055C32.1836 20.3912 32.0257 20.2023 31.8575 20.0361C31.8575 20.0361 31.3388 20.1161 30.7988 20.2497C31.9086 21.5393 32.2296 23.3393 31.2715 25.3286C31.6091 25.4848 31.9567 25.6233 32.3127 25.7432C33.0876 24.3653 33.5961 22.4763 32.3288 20.6055Z" fill="#E03D5C"/>
<path d="M38.4851 20.689L31.7457 20.0557C31.4246 20.1097 31.1083 20.1739 30.7988 20.2505C31.5022 21.0678 31.9283 22.1923 31.8247 23.4074C32.9713 23.9887 34.2681 24.3166 35.6416 24.3166C37.7855 24.3166 39.7425 23.518 41.2326 22.2028C40.4302 21.5892 39.5033 21.0764 38.4851 20.689Z" fill="#D83554"/>
<path d="M31.2133 20.8302C31.2365 20.8686 31.2594 20.907 31.2811 20.9453C31.2932 20.9667 31.3046 20.9881 31.3163 21.0095C31.3356 21.0449 31.3546 21.0803 31.3727 21.1157C31.3841 21.1379 31.395 21.16 31.4058 21.1822C31.423 21.217 31.4397 21.252 31.4557 21.2868C31.4658 21.3087 31.4757 21.3307 31.4853 21.3525C31.501 21.3882 31.5161 21.4239 31.5306 21.4596C31.5391 21.4803 31.5476 21.501 31.5557 21.5217C31.5707 21.56 31.5848 21.5983 31.5985 21.6366C31.6048 21.6544 31.6115 21.6722 31.6176 21.6899C31.6334 21.736 31.648 21.782 31.662 21.828C31.665 21.8377 31.6683 21.8475 31.6713 21.8573C31.7053 21.9721 31.7337 22.0865 31.757 22.2004C31.7588 22.2089 31.7601 22.2173 31.7618 22.2258C31.7713 22.2735 31.78 22.3211 31.7877 22.3687C31.7898 22.3814 31.7915 22.3942 31.7934 22.4069C31.8001 22.4505 31.8061 22.494 31.8113 22.5374C31.8129 22.551 31.8143 22.5646 31.8158 22.5782C31.8205 22.6212 31.8246 22.6642 31.8279 22.707C31.8289 22.7199 31.8299 22.7327 31.8308 22.7456C31.8338 22.7904 31.8361 22.835 31.8377 22.8794C31.8381 22.8897 31.8386 22.9001 31.8388 22.9104C31.8403 22.9603 31.8408 23.01 31.8405 23.0596C31.8405 23.0642 31.8406 23.0687 31.8405 23.0733C31.8395 23.1855 31.8344 23.297 31.8249 23.4074C32.2054 23.6003 32.6028 23.7646 33.0136 23.8989C33.3017 22.4024 32.8035 20.9955 31.8885 20.069L31.746 20.0557C31.3974 20.115 31.0738 20.1824 30.7988 20.2504C30.948 20.4237 31.0642 20.5878 31.1808 20.7756C31.1919 20.7938 31.2023 20.812 31.2133 20.8302Z" fill="#CC214A"/>
<path d="M31.7456 20.0552C32.6192 21.1205 33.9454 21.8004 35.4306 21.8004C36.5947 21.8004 37.6607 21.3824 38.4882 20.6889C36.3286 19.8671 33.9486 19.6846 31.7456 20.0552Z" fill="#F48A2A"/>
<path d="M31.071 20.6059C29.4576 18.2241 26.2822 18.9232 24.7277 20.3969C24.0279 21.0605 23.1185 21.4617 22.1554 21.5117C20.4735 21.599 17.9935 22.3079 16.6293 25.4454C16.1526 26.5417 15.8557 27.7776 15.7528 29.0385L15.7146 30.282C15.7968 34.3219 17.9051 38.2328 22.5021 38.2775C22.7025 38.2794 22.8656 38.1163 22.8624 37.916L22.8444 36.806C22.8417 36.6457 22.7027 36.5205 22.5431 36.5373C21.9157 36.6032 20.4152 36.5987 19.2577 35.3077C17.9104 33.805 18.4456 30.846 19.7097 29.9744C19.8971 29.8452 20.1501 29.9932 20.1283 30.2197L20.041 31.128C20.0205 31.3405 20.2701 31.4693 20.4307 31.3287C21.0469 30.7892 22.2265 29.9464 23.5411 29.9945C23.7461 30.002 23.929 30.1272 24.0132 30.3142C24.2844 30.9164 25.0523 32.5504 27.3161 31.957C29.5677 31.367 29.5742 28.8832 29.4649 28.1124C29.4401 27.9374 29.4985 27.7612 29.6226 27.6354C30.4229 26.8247 33.1605 23.6903 31.071 20.6059Z" fill="#8CBAE0"/>
<path d="M17.075 30.923L17.1132 29.6795C17.2162 28.4186 17.513 27.1827 17.9897 26.0864C19.354 22.9489 21.8339 22.2399 23.5158 22.1527C24.4789 22.1028 24.9147 21.7407 25.5752 21.0379C26.9029 19.6254 28.8041 19.4459 30.3135 19.7828C28.6035 18.4342 26.0655 19.1287 24.728 20.3968C24.0281 21.0604 23.1187 21.4616 22.1556 21.5116C20.4737 21.5989 17.9938 22.3078 16.6295 25.4453C16.1528 26.5415 15.8559 27.7775 15.753 29.0384L15.7148 30.2819C15.7833 33.6469 17.2578 36.9219 20.405 37.9482C18.1894 36.5324 17.1327 33.7595 17.075 30.923Z" fill="#79A6D1"/>
<path d="M19.5082 30.1372C19.5082 30.1372 16.3447 30.064 14.1765 28.0112C14.089 27.9283 13.9537 28.0345 14.0157 28.1378C14.6404 29.1795 16.1086 31.09 18.6786 31.573C18.6786 31.573 19.0654 30.5408 19.5082 30.1372Z" fill="#EFE6D3"/>
<path d="M16.1216 29.3029C15.4558 28.9975 14.7779 28.5805 14.1765 28.0112C14.089 27.9283 13.9537 28.0345 14.0157 28.1378C14.6404 29.1795 16.1086 31.09 18.6786 31.5729C18.6786 31.5729 18.8049 31.2362 18.9956 30.8722C17.7874 30.576 16.839 29.964 16.1216 29.3029Z" fill="#E2D4BC"/>
<path d="M30.982 25.8709C31.2581 24.2332 31.2283 22.1004 29.6055 21.0149C28.8332 20.4982 28.0357 20.3301 27.2354 20.5152C25.6291 20.8866 24.6315 22.5742 24.5899 22.6458C24.4565 22.875 24.5342 23.1686 24.7632 23.3024C24.9922 23.4362 25.2865 23.3589 25.4208 23.1301C25.429 23.1161 26.2568 21.7261 27.4557 21.4514C27.9934 21.3282 28.5216 21.4469 29.0708 21.8142C31.2203 23.2521 29.5133 27.665 29.4959 27.7092C29.4646 27.7884 29.456 27.8708 29.4666 27.9495C29.4841 27.8322 29.5375 27.7217 29.6228 27.6352C29.9225 27.3317 30.4941 26.7019 30.982 25.8709Z" fill="#79A6D1"/>
<path d="M21.4306 27.2586C21.8293 27.2586 22.1526 26.9353 22.1526 26.5365C22.1526 26.1377 21.8293 25.8145 21.4306 25.8145C21.0318 25.8145 20.7085 26.1377 20.7085 26.5365C20.7085 26.9353 21.0318 27.2586 21.4306 27.2586Z" fill="#7F7F7F"/>
<path d="M21.6807 26.5366C21.6807 26.3253 21.7719 26.1359 21.9166 26.0038C21.7882 25.8866 21.6179 25.8145 21.4303 25.8145C21.0315 25.8145 20.7083 26.1378 20.7083 26.5365C20.7083 26.9353 21.0316 27.2586 21.4303 27.2586C21.6179 27.2586 21.7882 27.1865 21.9166 27.0692C21.7719 26.9373 21.6807 26.7478 21.6807 26.5366Z" fill="#686666"/>
<path d="M17.4089 24.0523C19.5076 25.8682 22.8119 24.2752 22.6323 21.457C22.0008 21.5677 19.2917 21.411 17.4089 24.0523Z" fill="#ED4A62"/>
<path d="M17.4099 24.053C17.7863 24.3785 18.2401 24.6166 18.74 24.7362C19.8536 23.1488 21.32 22.5005 22.5814 22.2641C22.6366 21.9788 22.649 21.7175 22.6324 21.457C21.8142 21.6002 19.2684 21.4483 17.4099 24.053Z" fill="#E03D5C"/>
<path d="M21.1946 21.627C20.2898 21.8003 19.2817 22.1864 18.3752 22.9787C19.4967 23.9165 21.2249 23.1037 21.1946 21.627Z" fill="#CC214A"/>
<path d="M15.9192 27.7964C15.9784 27.8035 16.0386 27.8076 16.0998 27.8076C16.9239 27.8076 17.5921 27.1395 17.5921 26.3153C17.5921 25.757 17.2852 25.2705 16.8311 25.0146C16.7614 25.153 16.6941 25.2965 16.6293 25.4455C16.3107 26.1781 16.0729 26.9733 15.9192 27.7964Z" fill="#E27820"/>
</g>
<defs>
<clipPath id="clip0_562_3042">
<rect width="32" height="22.25" fill="white" transform="translate(14 19)"/>
</clipPath>
</defs>
</svg>
