<svg width="71.06" height="74.78" viewBox="0 0 87 104" fill="none" xmlns="http://www.w3.org/2000/svg">
<path d="M21.5786 37.0773C21.5786 38.4164 21.1804 39.7255 20.4344 40.8389C19.6884 41.9523 18.628 42.8202 17.3874 43.3326C16.1469 43.8451 14.7818 43.9792 13.4648 43.7179C12.1478 43.4567 10.938 42.8118 9.98854 41.8649C9.03904 40.918 8.39242 39.7116 8.13046 38.3982C7.86849 37.0848 8.00294 35.7235 8.51681 34.4863C9.03067 33.2491 9.90087 32.1917 11.0174 31.4477C12.1339 30.7037 13.4465 30.3066 14.7893 30.3066C16.5899 30.3066 18.3168 31.02 19.59 32.2897C20.8633 33.5595 21.5786 35.2816 21.5786 37.0773Z" fill="#4BDA61"/>
<path d="M62.9037 37.2395C62.9033 40.3991 61.9634 43.4876 60.2029 46.1144C58.4424 48.7413 55.9404 50.7885 53.0132 51.9973C50.086 53.206 46.8651 53.522 43.7578 52.9052C40.6505 52.2884 37.7964 50.7666 35.5564 48.5322C33.3164 46.2978 31.7911 43.4512 31.1734 40.3523C30.5557 37.2534 30.8733 34.0414 32.0861 31.1225C33.2989 28.2036 35.3523 25.7089 37.9868 23.9539C40.6213 22.1989 43.7185 21.2623 46.8868 21.2627C51.1347 21.2627 55.2087 22.9456 58.2124 25.9411C61.2162 28.9366 62.9037 32.9994 62.9037 37.2357" fill="#FAD222"/>
<path d="M68.0721 65.8218C68.0713 67.5938 67.5437 69.3258 66.556 70.7988C65.5684 72.2718 64.1649 73.4197 62.5231 74.0973C60.8814 74.775 59.075 74.952 57.3324 74.606C55.5897 74.26 53.9891 73.4064 52.7328 72.1533C51.4765 70.9002 50.621 69.3038 50.2744 67.5658C49.9278 65.8279 50.1057 64.0265 50.7856 62.3894C51.4655 60.7522 52.6168 59.3529 54.0941 58.3682C55.5713 57.3836 57.3081 56.8578 59.085 56.8574C60.2651 56.8572 61.4337 57.0887 62.524 57.5389C63.6144 57.9891 64.6051 58.6491 65.4397 59.4812C66.2742 60.3133 66.9363 61.3012 67.3879 62.3885C67.8396 63.4757 68.0721 64.6411 68.0721 65.818" fill="#F78F2A"/>
<path d="M76.2935 11.8332C76.2935 14.1735 75.5976 16.4612 74.2939 18.4072C72.9901 20.3531 71.1371 21.8698 68.969 22.7655C66.8009 23.6611 64.4152 23.8956 62.1136 23.4392C59.8119 22.9827 57.6976 21.8559 56.0381 20.2012C54.3786 18.5465 53.2483 16.4382 52.7903 14.1429C52.3322 11.8476 52.5669 9.46843 53.4647 7.30617C54.3625 5.1439 55.883 3.29567 57.8341 1.99519C59.7851 0.694714 62.0791 0.00038259 64.4258 0C67.5724 0.000513 70.5901 1.24745 72.8149 3.46655C75.0397 5.68565 76.2896 8.69517 76.2896 11.8332" fill="#5BB7D2"/>
<path d="M46.4065 4.72852C39.1794 4.72992 32.1585 7.13074 26.4512 11.5523C20.7439 15.9738 16.6752 22.1643 14.8867 29.1474H15.0438C16.399 29.1342 17.7301 29.5045 18.8827 30.2153C20.4351 24.11 23.9843 18.6952 28.9688 14.8272C33.9534 10.9593 40.0888 8.85902 46.4045 8.85863C47.7676 8.85856 49.1289 8.95553 50.4781 9.1488C50.722 7.75921 51.1974 6.42012 51.8845 5.18699C50.0731 4.88235 48.2395 4.72899 46.4026 4.72852" fill="#5BB7D2"/>
<path d="M18.7649 43.8516C17.624 44.605 16.2867 45.0085 14.9183 45.0123H14.7903C16.5274 52.0847 20.5982 58.3695 26.3485 62.8567C32.0988 67.344 39.1947 69.7733 46.4962 69.7543C47.2579 69.7543 48.0202 69.7278 48.7832 69.6749C48.5145 68.8773 48.3337 68.0529 48.244 67.2162C48.1855 66.6708 48.1673 66.1219 48.1897 65.5738C47.6232 65.6087 47.0568 65.6241 46.4923 65.6241C40.0867 65.6414 33.863 63.5006 28.8302 59.5486C23.7975 55.5967 20.2507 50.0655 18.7649 43.8516Z" fill="#5BB7D2"/>
<path d="M74.75 21.0693C74.0727 21.8202 73.3156 22.4954 72.492 23.0831C72.1661 23.3172 71.8306 23.53 71.4911 23.7331C74.4486 29.1999 75.5306 35.4818 74.572 41.6194C73.6133 47.757 70.6666 53.4131 66.1819 57.7238C67.2599 58.6119 68.1417 59.7132 68.7715 60.9582C79.7275 50.7171 82.2705 34.129 74.75 21.0693Z" fill="#5BB7D2"/>
<path d="M3.69438 92.4041H1V81.3214H6.12688C6.76321 81.3108 7.39458 81.4347 7.97939 81.6851C8.49202 81.8986 8.9467 82.23 9.30621 82.6524C9.64322 83.0544 9.90594 83.5129 10.0821 84.0065C10.26 84.5145 10.3499 85.0489 10.3479 85.587C10.3488 86.0197 10.2941 86.4507 10.1849 86.8695C10.0769 87.2855 9.90483 87.6823 9.67478 88.0457C9.44779 88.4103 9.1643 88.7368 8.83484 89.0129C8.47893 89.2979 8.07496 89.5173 7.64186 89.661C7.14956 89.8232 6.6337 89.903 6.11524 89.897H3.69438V92.4041ZM3.69438 83.8014V87.4286H5.82816C6.06889 87.4412 6.30972 87.4058 6.53656 87.3244C6.76339 87.243 6.97166 87.1173 7.14916 86.9546C7.47505 86.6374 7.63992 86.1809 7.63992 85.6005C7.63992 85.0202 7.47699 84.5811 7.1511 84.2812C6.78603 83.9622 6.31335 83.7928 5.82816 83.8073L3.69438 83.8014ZM20.9159 92.4041H12.406V81.3214H15.0868V89.9337H20.9159V92.4041ZM25.0089 92.4041H22.169L26.9235 81.3214H29.9069L34.6691 92.4041H31.8214L31.1018 90.6766H25.746L25.0089 92.4041ZM28.4404 84.3528L26.6771 88.4906H30.1687L28.4404 84.3528ZM39.0239 92.4041H36.3276V81.3214H39.0239L44.6493 88.0921V81.3214H47.3456V92.4041H44.6493L39.0239 85.6334V92.4041ZM58.1833 92.4041H49.6734V81.3214H58.1833V83.8014H52.3542V85.705H57.2192V88.0264H52.3542V89.9337H58.1833V92.4041ZM63.6322 83.8014H59.6925V81.3214H70.2779V83.8014H66.3401V92.4041H63.6244L63.6322 83.8014ZM81.4531 92.4041H75.9867V81.3214H80.8052C81.4818 81.31 82.1572 81.3848 82.8148 81.5439C83.2954 81.6542 83.7441 81.8733 84.1261 82.1842C84.4294 82.4434 84.6662 82.771 84.8167 83.1399C84.9664 83.5319 85.0395 83.9488 85.032 84.3682C85.0311 84.6309 84.9899 84.8918 84.9098 85.142C84.8379 85.3724 84.732 85.5908 84.5956 85.7901C84.4915 85.9421 84.3788 86.0881 84.258 86.2273C84.1758 86.3214 84.0849 86.4075 83.9865 86.4846C84.4931 86.7286 84.9216 87.1084 85.2241 87.5814C85.5152 88.0582 85.6646 88.6076 85.6547 89.1658C85.6601 89.6 85.5804 90.0311 85.42 90.4348C85.2568 90.8219 85.0112 91.1691 84.7003 91.4523C84.3237 91.7812 83.8764 92.0195 83.3929 92.1487C82.7617 92.3245 82.1083 92.4079 81.4531 92.3963V92.4041ZM78.6598 87.9548V90.1059H81.1408C82.2193 90.1059 82.7586 89.7474 82.7586 89.0303C82.7747 88.8697 82.7472 88.7078 82.6789 88.5614C82.6107 88.415 82.5042 88.2897 82.3706 88.1985C82.112 88.036 81.7033 87.9548 81.1447 87.9548H78.6598ZM78.6598 83.6041V85.9255H80.9565C81.5268 85.9255 81.9232 85.8346 82.1456 85.6527C82.3706 85.4593 82.4812 85.1575 82.4812 84.7165C82.4812 83.9801 81.973 83.6112 80.9565 83.6099L78.6598 83.6041Z" fill="#FAD222"/>
<path d="M2.03484 103.749H0V95.3878H3.86988C4.35029 95.3801 4.82691 95.4737 5.26848 95.6625C5.65463 95.8252 5.99688 96.0764 6.26748 96.3957C6.52135 96.7 6.71844 97.0473 6.84942 97.421C6.98198 97.8042 7.04759 98.2072 7.0434 98.6126C7.04372 98.9388 7.00266 99.2638 6.92119 99.5798C6.83697 99.8928 6.7062 100.191 6.53323 100.466C6.35901 100.738 6.14448 100.982 5.89697 101.189C5.62908 101.405 5.32409 101.57 4.99691 101.677C4.62553 101.8 4.23611 101.861 3.84467 101.857H2.02126L2.03484 103.749ZM2.03484 97.2604V99.9938H3.64293C3.82765 100.008 4.01333 99.9823 4.18682 99.9173C4.36031 99.8524 4.51737 99.7503 4.6469 99.6182C4.77644 99.486 4.87528 99.3271 4.93643 99.1527C4.99758 98.9783 5.01955 98.7926 5.00079 98.6087C5.01354 98.426 4.98747 98.2426 4.92429 98.0706C4.86112 97.8986 4.76225 97.7418 4.63416 97.6105C4.35797 97.3722 4.00219 97.2459 3.63712 97.2565L2.03484 97.2604ZM15.0315 103.749H8.60687V95.3878H10.6262V101.882H15.0257L15.0315 103.749ZM18.1196 103.749H15.9859L19.5706 95.3878H21.8208L25.421 103.749H23.2523L22.7111 102.445H18.6667L18.1196 103.749ZM20.7015 97.6724L19.3708 100.795H22.0089L20.7015 97.6724ZM27.6033 100.592L24.0283 95.3859H26.356L28.6333 98.808L30.8796 95.3859H33.2345L29.6381 100.593V103.749H27.6033V100.592ZM39.2421 103.747H37.1083L40.695 95.3859H42.9432L46.5435 103.747H44.3806L43.8394 102.443H39.7969L39.2421 103.747ZM41.8298 97.6724L40.4991 100.795H43.1333L41.8298 97.6724ZM46.6967 99.5702C46.6954 98.9998 46.8123 98.4354 47.0401 97.9123C47.2615 97.3963 47.5809 96.9279 47.9809 96.533C48.3974 96.1284 48.8897 95.8096 49.4299 95.5948C50.0065 95.3591 50.6243 95.2395 51.2475 95.2427C51.9736 95.2322 52.692 95.3923 53.3445 95.7103C53.9969 96.0282 54.5651 96.495 55.0029 97.0728L53.2571 97.9568C52.8187 97.4074 52.1404 97.1327 51.2223 97.1327C50.8925 97.1205 50.5636 97.175 50.2556 97.2931C49.9475 97.4111 49.6666 97.5902 49.4299 97.8195C49.2004 98.0435 49.0199 98.3124 48.8998 98.6094C48.7796 98.9064 48.7223 99.2249 48.7316 99.545C48.7267 99.8684 48.7876 100.189 48.9106 100.489C49.0337 100.788 49.2162 101.059 49.4473 101.286C49.6811 101.524 49.9617 101.711 50.2714 101.836C50.5812 101.961 50.9135 102.021 51.2475 102.011C52.1204 102.011 52.8064 101.778 53.3056 101.311V100.499H50.7548V98.9511H55.0902V102.046C55.0412 102.134 54.9805 102.215 54.9098 102.286C54.7596 102.452 54.5961 102.605 54.421 102.745C54.1821 102.943 53.9271 103.122 53.6586 103.279C53.3226 103.466 52.9641 103.611 52.5918 103.71C51.5315 104.005 50.4034 103.944 49.3814 103.536C48.8373 103.316 48.3446 102.987 47.9343 102.569C47.5471 102.169 47.2391 101.701 47.0265 101.187C46.8081 100.673 46.6959 100.119 46.6967 99.5605V99.5702ZM57.7768 103.747H55.643L59.2317 95.3859H61.4799L65.0802 103.747H62.925L62.3838 102.443H58.3394L57.7768 103.747ZM60.3587 97.6724L59.0299 100.795H61.6622L60.3587 97.6724ZM68.4573 103.747H66.4341V95.3878H68.4573V103.747ZM72.2361 103.747H70.2032V95.3878H72.2361L76.4765 100.491V95.3878H78.5113V103.749H76.4765L72.2419 98.6397L72.2361 103.747ZM81.871 98.0439H79.8362C79.8197 97.6585 79.8904 97.2744 80.0432 96.9201C80.196 96.5657 80.4269 96.2503 80.7188 95.9972C81.3059 95.4942 82.1096 95.2427 83.13 95.2427C83.5938 95.2354 84.0559 95.3007 84.4995 95.4362C84.8576 95.5422 85.1885 95.7244 85.4693 95.9701C85.7079 96.1865 85.8989 96.45 86.03 96.7439C86.1608 97.0495 86.2268 97.3788 86.2239 97.7111C86.2275 97.9815 86.1842 98.2505 86.0959 98.5062C86.0194 98.7214 85.9058 98.9217 85.7603 99.0981C85.6243 99.2541 85.4736 99.3966 85.3103 99.5237C85.1497 99.6484 84.9827 99.7647 84.8098 99.8719C84.645 99.9764 84.4936 100.077 84.3578 100.18C84.2251 100.274 84.1113 100.392 84.0223 100.528C83.9377 100.656 83.8931 100.806 83.8942 100.959H81.6964C81.6925 100.707 81.7379 100.457 81.8303 100.222C81.9106 100.021 82.0314 99.8375 82.1853 99.6843C82.3345 99.5406 82.4969 99.411 82.6702 99.2974C82.8403 99.1854 83.0172 99.0839 83.1998 98.9937C83.3763 98.9066 83.5373 98.8196 83.6847 98.7325C83.82 98.6561 83.9408 98.5565 84.0417 98.4385C84.1276 98.3351 84.1749 98.2052 84.1755 98.0709C84.1778 97.9352 84.1485 97.8009 84.0899 97.6784C84.0314 97.5558 83.9451 97.4485 83.838 97.3649C83.6019 97.1733 83.3042 97.0736 83 97.0844C82.7046 97.0772 82.4175 97.1823 82.1969 97.3784C82.0973 97.459 82.0165 97.5603 81.9602 97.6752C81.9039 97.7901 81.8735 97.916 81.871 98.0439ZM81.648 102.714C81.6454 102.553 81.6752 102.394 81.7355 102.245C81.7958 102.096 81.8855 101.961 81.9991 101.847C82.1052 101.731 82.2344 101.639 82.3784 101.577C82.5224 101.514 82.678 101.482 82.8351 101.483C82.9967 101.481 83.1571 101.511 83.3063 101.573C83.4554 101.635 83.5902 101.727 83.7022 101.843C83.8181 101.956 83.9098 102.092 83.9715 102.242C84.0332 102.391 84.0636 102.552 84.0611 102.714C84.0621 102.87 84.0304 103.025 83.968 103.169C83.9055 103.312 83.8137 103.441 83.6983 103.547C83.5852 103.66 83.4505 103.749 83.3022 103.809C83.1539 103.869 82.9951 103.898 82.8351 103.896C82.5212 103.894 82.2207 103.768 81.9986 103.547C81.7765 103.326 81.6505 103.027 81.648 102.714Z" fill="#FAD222"/>
</svg>
